# xmcd CD database file
#
# Track frame offsets:
#	150
#	21367
#	42350
#	63720
#
# Disc length: 1127 seconds
#
# Revision: 0
# Processed by: cddbd v1.5.1PL0 Copyright (c) Steve Scherf et al.
# Submitted via: CDex 1.51
#
DISCID=34046504
DTITLE=大塚愛 - 大好きだよ。
DYEAR=2004
DGENRE=JPop
TTITLE0=大好きだよ。
TTITLE1=フレンズ -サバカン ver.-
TTITLE2=大好きだよ。 (Instrmental)
TTITLE3=フレンズ -サバカン ver.- (Instrmental)
EXTD=YEAR: 2004
EXTT0=
EXTT1=
EXTT2=
EXTT3=
PLAYORDER=
